<svg xmlns="http://www.w3.org/2000/svg" width="16" height="16" fill="#71712f" viewBox="0 0 16 16">
  <path fill-rule="evenodd" d="M8 3a5 5 0 1 1-4.546 2.914.5.5 0 0 0-.908-.417A6 6 0 1 0 8 2v1z"/>
  <path d="M8 4.466V.534a.25.25 0 0 0-.41-.192L5.23 2.308a.25.25 0 0 0 0 .384l2.36 1.966A.25.25 0 0 0 8 4.466z"/>
<!--
  <path d="M1.161 8a6.84 6.84 0 1 0 6.842-6.84.58.58 0 1 1 0-1.16 8 8 0 1 1-6.556 3.412l-.663-.577a.58.58 0 0 1 .227-.997l2.52-.69a.58.58 0 0 1 .728.633l-.332 2.592a.58.58 0 0 1-.956.364l-.643-.56A6.812 6.812 0 0 0 1.16 8z"/>
  <path d="M6.641 11.671V8.843h1.57l1.498 2.828h1.314L9.377 8.665c.897-.3 1.427-1.106 1.427-2.1 0-1.37-.943-2.246-2.456-2.246H5.5v7.352h1.141zm0-3.75V5.277h1.57c.881 0 1.416.499 1.416 1.32 0 .84-.504 1.324-1.386 1.324h-1.6z"/>
-->
</svg>